<?xml version="1.0" encoding="UTF-8" standalone="no"?><svg xmlns:rdf="http://www.w3.org/1999/02/22-rdf-syntax-ns#" xmlns="http://www.w3.org/2000/svg"   height="99.999" width="42.2" version="1.1">  <g transform="translate(-250.42784,1407.4558)">    <g transform="matrix(0.14437295,0,0,0.14437295,71.397352,-1432.8384)">      <path stroke-linejoin="miter" d="m1268.9,820.61c141.05-236.96-77.198-345.79-3.067-634.81h240.79c74.131,289.02-144.12,397.85-3.067,634.81,15.16,25.468-82.345,38.417-117.33,37.82-34.984,0.5963-132.49-12.352-117.33-37.82z" stroke="#000" stroke-linecap="butt" stroke-miterlimit="4" stroke-dasharray="none" stroke-width="20" fill="none"/>      <path d="m1288.3,284.72c-10.103,208.01,127.42,317.08,34.563,506,25.607,5.4242,55.154,8.0572,71.344,7.7812,23.286,0.39691,70.618-3.7089,97.625-15-85.907-184.51,47.974-293.44,38-498.78h-241.53z" fill="#000"/>    </g>  </g></svg>